<?xml version="1.0" standalone="no"?>
<!DOCTYPE svg PUBLIC "-//W3C//DTD SVG 20010904//EN"
 "http://www.w3.org/TR/2001/REC-SVG-20010904/DTD/svg10.dtd">
<svg version="1.0" xmlns="http://www.w3.org/2000/svg"
 width="512.000000pt" height="512.000000pt" viewBox="0 0 512.000000 512.000000"
 preserveAspectRatio="xMidYMid meet">

<g transform="translate(0.000000,512.000000) scale(0.100000,-0.100000)"
fill="#000000" stroke="none">
<path d="M1320 5107 c-49 -16 -133 -102 -148 -153 -8 -27 -12 -121 -12 -277
l0 -235 -27 -10 c-427 -152 -1006 -368 -1031 -385 -72 -49 -114 -150 -96 -234
5 -27 218 -622 473 -1323 348 -957 470 -1281 488 -1298 13 -12 35 -22 49 -22
29 0 74 41 74 67 0 9 -211 598 -470 1309 -258 710 -470 1300 -470 1312 0 54
26 66 525 247 264 96 481 175 483 175 1 0 1 -43 0 -96 l-3 -97 -175 -63 c-96
-35 -186 -72 -200 -83 -45 -33 -61 -73 -64 -163 -3 -114 -27 -164 -118 -249
-116 -108 -137 -18 240 -1054 201 -553 322 -900 325 -934 4 -36 19 -75 45
-120 20 -36 49 -88 62 -116 34 -69 85 -94 187 -94 101 1 162 -29 239 -116 64
-73 110 -94 173 -77 20 5 224 77 453 161 l417 151 253 0 c159 0 247 -4 237
-10 -40 -23 -1834 -670 -1859 -670 -51 0 -74 35 -131 195 -56 157 -80 195
-124 195 -30 0 -75 -41 -75 -68 0 -21 101 -306 125 -351 8 -16 31 -43 51 -61
96 -84 160 -81 443 24 113 42 211 76 218 76 7 0 417 -147 911 -327 836 -306
901 -328 962 -328 76 0 136 28 182 85 20 26 184 465 603 1615 317 869 578
1600 581 1625 12 93 -42 195 -126 236 -25 12 -267 102 -537 200 l-493 179 0
484 c0 350 -3 495 -12 525 -16 55 -99 138 -154 154 -31 9 -270 12 -971 12
-926 0 -930 0 -957 -21 -36 -28 -36 -80 0 -108 27 -21 31 -21 956 -21 l930 0
29 -29 29 -29 0 -1682 c0 -1259 -3 -1687 -12 -1703 -25 -48 27 -46 -1235 -47
-655 0 -1199 3 -1208 6 -47 18 -45 -49 -45 1744 l0 1682 29 29 29 29 135 0
c158 0 181 9 181 75 0 27 -6 43 -23 56 -20 17 -40 19 -165 18 -77 -1 -157 -6
-176 -12z m3110 -1493 c250 -91 469 -172 487 -181 42 -19 60 -63 45 -110 -44
-144 -1140 -3131 -1154 -3145 -41 -41 -37 -42 -861 257 -436 158 -805 293
-821 299 -27 11 -22 14 105 59 l134 48 439 -161 c448 -164 496 -177 549 -148
12 6 54 44 92 84 59 60 79 75 125 88 30 9 85 15 121 14 76 -1 129 23 153 71 8
15 181 485 385 1045 284 779 371 1028 371 1063 0 56 -26 100 -79 137 -74 51
-123 152 -121 246 3 89 0 100 -35 138 -30 34 -57 47 -220 107 l-185 68 0 93
c0 52 4 94 8 94 4 0 212 -75 462 -166z"/>
<path d="M1719 4775 c-21 -12 -43 -58 -129 -285 -112 -295 -115 -308 -58 -339
43 -25 78 -6 108 56 l25 53 98 0 98 0 20 -49 c19 -46 49 -71 83 -71 28 0 66
41 66 71 0 49 -186 531 -216 557 -29 25 -58 27 -95 7z m81 -357 c0 -5 -16 -8
-35 -8 -41 0 -43 10 -18 71 l16 41 19 -48 c10 -27 18 -52 18 -56z"/>
<path d="M2506 4116 c-22 -8 -47 -23 -57 -33 -24 -25 -497 -757 -525 -814 -34
-66 -47 -142 -41 -223 16 -189 182 -359 365 -374 40 -3 62 -9 59 -16 -3 -6
-19 -56 -36 -111 -37 -115 -36 -147 10 -191 l30 -29 249 0 249 0 30 29 c46 44
47 75 6 195 -19 58 -35 108 -35 112 0 3 28 9 63 11 163 13 317 154 357 327 15
65 8 170 -16 231 -15 40 -184 309 -450 717 -60 91 -103 147 -121 157 -45 23
-94 27 -137 12z"/>
<path d="M3110 2280 c-11 -11 -20 -32 -20 -47 0 -26 163 -470 195 -532 24 -48
90 -57 128 -18 21 21 217 518 217 550 0 8 -9 26 -21 41 -15 19 -30 26 -54 26
-41 0 -67 -24 -85 -81 l-13 -40 -100 3 -100 3 -14 39 c-7 22 -21 48 -30 58
-22 24 -78 23 -103 -2z m276 -282 c-7 -18 -16 -42 -20 -53 -7 -18 -9 -17 -20
11 -31 73 -31 74 13 74 l40 0 -13 -32z"/>
</g>
</svg>
